# xmcd
#
# Track frame offsets:
# 150
# 20621
# 37344
# 54406
# 69714
# 86494
# 103827
# 120563
# 138006
# 155675
# 169930
# 188791
# 205866
# 224249
#
# Disc length: 3195 seconds
#
#
# Revision: 0
# Processed by: cddbd v1.5.2PL0 Copyright (c) Steve Scherf et al.
# Submitted via: FreeRIP 2.52 
#
DISCID=d30c790e
DTITLE=สายัณห์ สัญญา - ดีที่สุด สายัณห์ สัญญา
DYEAR=2548
DGENRE=Country
TTITLE0=ลารักจากสวนแดง
TTITLE1=พบรักปากน้ำโพ
TTITLE2=ฝากใจไว้ที่เดือน
TTITLE3=มนต์รักกาสะลอง
TTITLE4=ลานเทสะเทือน
TTITLE5=หลบเลียแผลใจ
TTITLE6=สาวยโสธร
TTITLE7=หลบเดือน
TTITLE8=อยากไปให้พ้น
TTITLE9=จำปาลืมลืมต้น
TTITLE10=น้ำตาอีสาน
TTITLE11=สุดทางที่ด่านซ้าย
TTITLE12=หนึ่งปีที่ทรมาร
TTITLE13=เพราะฉันโง่ซิ
EXTD=
EXTT0=
EXTT1=
EXTT2=
EXTT3=
EXTT4=
EXTT5=
EXTT6=
EXTT7=
EXTT8=
EXTT9=
EXTT10=
EXTT11=
EXTT12=
EXTT13=
PLAYORDER=
